<?xml version="1.0" standalone="no"?>
<!DOCTYPE svg PUBLIC "-//W3C//DTD SVG 20010904//EN"
 "http://www.w3.org/TR/2001/REC-SVG-20010904/DTD/svg10.dtd">
<svg version="1.0" xmlns="http://www.w3.org/2000/svg"
 width="2048.000000pt" height="2048.000000pt" viewBox="0 0 2048.000000 2048.000000"
 preserveAspectRatio="xMidYMid meet">
<metadata>
Created by potrace 1.14, written by Peter Selinger 2001-2017
</metadata>
<g transform="translate(0.000000,2048.000000) scale(0.100000,-0.100000)"
fill="#000000" stroke="none">
<path d="M8395 16581 c-3 -5 -13 -10 -23 -10 -98 -1 -142 -5 -142 -15 0 -7 -3
-8 -8 -1 -8 12 -22 13 -39 2 -7 -5 -13 -4 -13 1 0 5 -7 9 -15 9 -8 0 -15 -3
-15 -7 0 -4 -10 -6 -22 -6 -13 1 -28 -2 -35 -6 -6 -5 -14 -5 -18 2 -3 6 -10 8
-15 5 -8 -5 -56 -12 -117 -17 -7 -1 -13 -6 -13 -12 0 -6 -4 -6 -12 2 -9 9 -14
7 -24 -6 -8 -9 -14 -12 -14 -5 0 11 -16 12 -35 2 -5 -3 -25 -5 -42 -5 -18 1
-33 -1 -33 -4 0 -3 -10 -5 -22 -6 -13 0 -45 -4 -73 -8 -27 -5 -60 -9 -72 -9
-13 -1 -23 -3 -23 -6 0 -4 -19 -7 -42 -8 -23 -2 -45 -8 -49 -14 -4 -8 -8 -7
-12 2 -3 11 -7 11 -17 2 -7 -6 -19 -9 -26 -6 -8 3 -14 0 -14 -7 0 -10 -3 -10
-15 0 -12 10 -15 10 -15 0 0 -8 -3 -10 -7 -7 -3 4 -12 2 -20 -4 -7 -6 -13 -7
-13 -2 0 5 -7 10 -15 10 -8 0 -12 -4 -9 -9 3 -4 -3 -8 -13 -9 -10 0 -26 -3
-35 -5 -10 -3 -33 -8 -50 -11 -18 -3 -36 -11 -40 -17 -5 -8 -8 -7 -8 2 0 8 -5
10 -12 5 -7 -4 -17 -8 -23 -8 -35 -4 -95 -19 -95 -24 0 -3 -10 -7 -22 -7 -13
-1 -32 -4 -43 -7 -11 -3 -27 -7 -35 -9 -8 -1 -18 -7 -22 -13 -5 -6 -8 -4 -8 5
0 10 -3 11 -8 3 -4 -6 -21 -13 -39 -16 -17 -3 -37 -8 -43 -12 -10 -6 -41 -13
-77 -17 -7 -1 -13 -4 -13 -8 0 -3 -10 -6 -22 -7 -11 -1 -25 -8 -29 -15 -7 -10
-9 -10 -9 2 0 12 -2 12 -9 2 -4 -8 -12 -14 -17 -13 -20 1 -59 -13 -66 -23 -5
-7 -8 -7 -8 2 0 10 -3 10 -15 -1 -8 -9 -26 -14 -41 -12 -15 1 -28 -3 -31 -11
-3 -8 -9 -12 -13 -9 -4 3 -13 -1 -19 -9 -7 -8 -21 -12 -31 -9 -12 3 -20 0 -20
-6 0 -7 -5 -9 -11 -5 -6 3 -15 0 -20 -7 -7 -11 -9 -11 -9 -1 0 10 -4 9 -16 -2
-8 -9 -20 -14 -25 -11 -5 4 -9 1 -9 -6 0 -7 -3 -9 -7 -6 -3 4 -12 2 -20 -4 -7
-6 -13 -8 -13 -4 0 4 -12 0 -26 -10 -14 -9 -28 -14 -31 -11 -3 3 -12 -2 -20
-12 -9 -10 -11 -11 -7 -2 7 13 5 13 -9 1 -9 -7 -17 -10 -17 -7 0 4 -7 1 -15
-7 -8 -9 -26 -14 -40 -13 -20 3 -23 0 -14 -10 8 -10 6 -12 -10 -9 -12 2 -21 0
-21 -5 0 -5 -7 -7 -15 -4 -8 4 -15 1 -15 -6 0 -6 -4 -9 -9 -6 -5 4 -11 1 -13
-4 -2 -6 -13 -12 -26 -13 -12 0 -22 -5 -22 -10 0 -4 -4 -6 -9 -3 -5 4 -11 2
-13 -4 -2 -6 -14 -12 -28 -15 -14 -3 -26 -9 -28 -14 -2 -6 -10 -7 -18 -4 -8 3
-14 1 -14 -5 0 -5 -10 -13 -22 -17 -28 -9 -27 -8 -60 -25 -16 -7 -28 -18 -28
-24 0 -6 -5 -4 -10 4 -6 10 -10 11 -10 3 0 -7 -7 -13 -15 -13 -9 0 -18 -7 -21
-15 -4 -8 -10 -12 -15 -9 -5 3 -9 -1 -9 -8 0 -9 -3 -9 -10 2 -7 12 -10 12 -10
1 0 -7 -6 -11 -14 -8 -11 4 -13 1 -9 -10 4 -11 3 -14 -6 -9 -7 5 -18 0 -27
-10 -9 -11 -12 -13 -9 -5 5 9 -1 8 -19 -4 -14 -10 -26 -21 -26 -25 0 -5 -10
-6 -22 -2 -17 4 -20 2 -15 -11 4 -11 1 -15 -14 -12 -10 2 -19 -1 -19 -7 0 -6
-3 -9 -6 -5 -4 3 -13 -1 -21 -9 -8 -8 -20 -11 -26 -7 -7 3 -9 3 -5 -2 9 -9
-30 -40 -39 -31 -4 3 -13 -3 -20 -14 -8 -11 -19 -18 -24 -15 -5 4 -9 1 -9 -5
0 -6 -4 -9 -9 -6 -5 3 -12 -1 -15 -9 -3 -8 -9 -15 -13 -14 -20 3 -34 -2 -28
-11 5 -9 -16 -15 -38 -11 -5 1 -6 -2 -4 -6 5 -9 -25 -41 -32 -34 -2 2 -15 -7
-29 -20 -14 -13 -22 -17 -17 -9 4 8 -5 4 -21 -10 -16 -14 -30 -28 -32 -32 -2
-5 -10 -8 -18 -8 -8 0 -14 -4 -14 -10 0 -5 -3 -9 -7 -9 -21 3 -33 -2 -30 -13
1 -8 -7 -13 -20 -12 -12 1 -22 -1 -21 -5 3 -27 -2 -33 -19 -20 -9 8 -14 9 -10
3 8 -14 -26 -47 -38 -37 -4 5 -5 2 -1 -4 4 -7 2 -13 -4 -13 -6 0 -8 -5 -4 -12
5 -8 0 -7 -11 2 -11 9 -16 10 -11 3 4 -8 2 -13 -4 -13 -6 0 -9 -4 -6 -9 3 -5
-2 -8 -12 -7 -9 0 -16 -5 -14 -12 1 -8 -2 -11 -8 -7 -5 3 -13 -1 -16 -9 -3 -9
-10 -13 -15 -10 -5 3 -12 -2 -15 -10 -3 -8 -14 -18 -25 -21 -11 -4 -17 -10
-14 -15 3 -5 -4 -11 -15 -15 -11 -4 -18 -11 -14 -16 3 -5 2 -8 -3 -7 -13 4
-54 -22 -48 -31 2 -5 -9 -14 -25 -21 -16 -7 -28 -16 -27 -20 1 -4 -1 -9 -5 -9
-13 -3 -64 -56 -60 -63 2 -5 -2 -8 -8 -8 -14 0 -160 -146 -160 -160 0 -5 -7
-10 -15 -10 -8 0 -15 -3 -15 -7 0 -5 -20 -30 -45 -58 -25 -27 -45 -53 -45 -58
0 -4 -4 -5 -10 -2 -5 3 -10 -1 -10 -9 0 -9 -4 -16 -10 -16 -5 0 -10 -6 -10
-13 0 -7 -9 -18 -20 -25 -12 -7 -18 -17 -15 -22 3 -6 -1 -10 -9 -10 -9 0 -16
-7 -16 -15 0 -9 -7 -18 -15 -21 -8 -4 -12 -10 -9 -15 3 -5 -5 -13 -18 -18 -13
-6 -17 -10 -8 -11 12 0 11 -3 -2 -11 -10 -5 -18 -17 -18 -25 0 -8 -5 -12 -10
-9 -5 3 -10 1 -10 -4 0 -21 -3 -26 -21 -39 -11 -7 -19 -18 -19 -23 0 -6 -7
-17 -15 -26 -8 -8 -13 -18 -10 -23 3 -5 -4 -11 -15 -15 -11 -4 -18 -11 -15
-16 4 -5 1 -9 -5 -9 -6 0 -8 -5 -5 -10 3 -6 -1 -13 -10 -16 -13 -6 -14 -8 -3
-15 10 -7 9 -9 -5 -9 -10 0 -15 -4 -12 -10 3 -5 1 -10 -5 -10 -6 0 -8 -4 -5
-10 3 -5 2 -10 -2 -10 -5 0 -17 -18 -27 -40 -10 -22 -22 -38 -27 -35 -5 4 -6
-1 -3 -9 3 -9 2 -16 -4 -16 -5 0 -13 -7 -16 -16 -4 -10 -2 -13 7 -9 6 4 1 -3
-13 -15 -14 -12 -18 -18 -10 -14 10 5 9 0 -4 -14 -11 -12 -15 -22 -10 -22 5 0
5 -4 -1 -8 -15 -10 -35 -49 -35 -67 0 -8 -4 -15 -10 -15 -5 0 -10 -9 -10 -21
0 -11 -4 -18 -9 -14 -6 3 -8 -4 -6 -15 2 -12 -2 -23 -10 -26 -7 -3 -12 -14
-10 -24 2 -10 -3 -21 -11 -24 -7 -3 -11 -12 -8 -21 3 -8 1 -15 -6 -15 -6 0 -9
-4 -5 -9 3 -5 1 -12 -4 -16 -5 -3 -8 -14 -6 -25 2 -11 -1 -19 -8 -17 -6 1 -11
-8 -12 -20 0 -12 -5 -27 -12 -34 -6 -6 -9 -17 -7 -24 3 -7 1 -16 -5 -19 -6 -4
-7 -14 -4 -23 4 -11 3 -14 -5 -9 -8 5 -10 2 -6 -8 3 -9 2 -16 -3 -16 -5 0 -9
-8 -10 -17 0 -10 -4 -29 -7 -43 -14 -50 -19 -75 -20 -92 0 -10 -3 -18 -6 -18
-3 0 -7 -8 -8 -17 -3 -29 -7 -47 -13 -58 -3 -5 -4 -20 -3 -32 0 -13 -1 -23 -5
-23 -3 0 -7 -16 -8 -36 -1 -20 -7 -42 -13 -49 -8 -9 -8 -15 0 -20 6 -4 7 -12
0 -24 -6 -12 -5 -22 3 -31 9 -10 9 -11 0 -6 -9 5 -12 -1 -9 -23 2 -17 0 -31
-3 -31 -4 0 -6 -19 -5 -42 0 -24 -2 -47 -4 -52 -5 -9 -6 -77 -2 -93 1 -5 1
-12 0 -18 -6 -26 -5 -133 2 -153 6 -16 5 -21 -4 -16 -7 5 -8 3 -3 -5 4 -7 9
-43 11 -80 2 -36 4 -68 5 -71 1 -3 1 -9 0 -14 -1 -4 4 -14 10 -22 9 -11 9 -14
-1 -14 -9 0 -9 -4 1 -17 12 -15 12 -16 -1 -8 -13 8 -13 6 -1 -8 7 -9 11 -24 7
-32 -3 -8 -1 -15 4 -15 5 0 7 -7 4 -15 -4 -8 -1 -21 4 -28 6 -7 7 -18 3 -26
-5 -8 -3 -24 4 -38 8 -14 11 -32 8 -39 -3 -8 1 -14 8 -14 7 0 10 -3 6 -6 -3
-3 1 -27 8 -52 8 -25 12 -48 10 -50 -2 -3 2 -17 11 -33 8 -16 12 -29 8 -29 -3
0 1 -10 9 -23 11 -17 12 -28 5 -41 -8 -14 -7 -17 1 -12 7 4 11 0 11 -12 0 -10
3 -22 7 -26 8 -7 9 -11 12 -37 0 -5 4 -8 8 -6 5 3 9 -5 9 -16 4 -47 8 -65 16
-61 7 5 12 -18 9 -38 0 -5 3 -8 9 -8 5 0 10 -7 10 -16 0 -9 8 -23 17 -31 10
-8 12 -12 6 -8 -7 3 -13 1 -13 -4 0 -6 5 -11 10 -11 6 0 9 -3 8 -7 -2 -12 14
-46 29 -61 7 -7 13 -21 13 -29 0 -9 8 -25 17 -36 13 -15 14 -18 3 -12 -13 8
-13 7 0 -11 8 -10 19 -22 23 -25 5 -3 7 -8 6 -10 -5 -7 25 -69 33 -69 5 0 8
-6 8 -13 0 -7 9 -23 20 -35 12 -12 16 -22 9 -22 -7 0 -2 -8 9 -19 12 -10 22
-26 22 -35 0 -10 5 -14 10 -11 6 3 10 -1 10 -10 0 -9 4 -13 10 -10 5 3 8 0 5
-7 -3 -7 6 -25 20 -40 14 -16 23 -28 20 -28 -4 0 0 -7 7 -15 29 -32 39 -45 33
-45 -6 0 6 -16 38 -51 9 -10 15 -19 12 -19 -3 0 0 -6 7 -14 7 -8 17 -11 22 -8
5 3 6 0 2 -6 -4 -6 8 -26 26 -43 18 -18 26 -29 18 -25 -8 4 -5 -1 7 -12 12
-11 19 -22 16 -26 -4 -3 1 -6 10 -6 10 0 17 -4 17 -10 0 -5 11 -20 24 -33 14
-14 22 -28 19 -31 -4 -3 1 -6 11 -6 9 0 15 -4 12 -8 -3 -5 4 -14 14 -22 10 -8
17 -17 14 -22 -3 -5 0 -7 7 -6 7 2 18 -7 24 -19 7 -13 15 -20 18 -16 4 3 7 -1
7 -10 0 -10 8 -17 17 -17 9 0 13 -3 10 -6 -4 -4 10 -20 30 -35 20 -16 33 -29
29 -29 -4 0 -1 -6 6 -14 7 -8 15 -13 18 -12 3 1 17 -11 32 -26 15 -15 24 -28
20 -28 -4 0 4 -6 18 -13 14 -8 24 -19 22 -26 -1 -7 2 -10 8 -6 5 3 10 1 10 -5
0 -6 5 -8 10 -5 6 3 10 -2 10 -11 0 -10 3 -15 6 -11 8 7 60 -44 56 -56 -1 -5
1 -6 6 -3 5 3 23 -8 41 -24 18 -17 35 -30 38 -30 3 0 17 -12 31 -27 13 -16 21
-21 17 -13 -5 8 1 6 12 -5 11 -11 31 -29 46 -39 14 -11 24 -23 21 -28 -3 -4 2
-5 10 -2 10 4 16 1 16 -7 0 -7 3 -9 6 -6 4 4 15 -3 25 -15 11 -11 19 -17 19
-12 0 5 5 1 11 -8 5 -10 17 -18 25 -18 9 0 12 -5 8 -12 -5 -8 -2 -9 9 -5 11 4
17 1 17 -9 0 -8 5 -12 10 -9 6 3 13 -1 16 -9 3 -9 12 -16 20 -16 8 0 14 -5 14
-11 0 -5 4 -7 10 -4 6 3 10 1 10 -4 0 -6 6 -11 13 -11 7 0 20 -9 30 -20 10
-12 22 -18 27 -15 6 3 10 1 10 -4 0 -6 7 -11 15 -11 9 0 18 -7 21 -15 4 -8 10
-12 15 -9 5 3 9 1 9 -4 0 -9 37 -25 53 -23 4 1 6 -2 6 -7 -3 -19 2 -25 11 -12
8 13 10 13 10 -2 0 -9 5 -20 12 -24 7 -5 9 -2 4 7 -4 8 1 4 12 -8 11 -12 22
-19 26 -16 3 4 18 -4 33 -18 14 -13 22 -17 18 -9 -6 11 -3 10 12 -3 11 -9 25
-17 31 -17 7 0 12 -5 12 -11 0 -5 5 -7 10 -4 6 3 10 2 10 -3 0 -9 37 -25 53
-23 4 1 7 -3 7 -9 0 -5 7 -10 16 -10 9 0 12 -5 8 -12 -5 -8 -2 -9 9 -5 9 3 23
-1 32 -9 9 -9 22 -13 30 -10 8 3 14 0 12 -6 -1 -7 3 -12 8 -13 6 0 25 -9 43
-18 17 -10 32 -14 32 -10 0 5 4 4 8 -2 4 -5 16 -17 26 -25 18 -13 19 -13 11 0
-6 11 -3 10 12 -3 11 -9 23 -14 26 -10 4 3 7 1 7 -5 0 -7 3 -11 8 -11 22 4 42
-2 37 -11 -3 -6 4 -10 18 -10 13 0 33 -9 44 -20 15 -14 23 -16 26 -7 4 9 6 9
6 -1 1 -7 6 -10 11 -7 6 3 13 -1 16 -9 3 -9 10 -13 15 -10 6 3 17 0 26 -8 14
-11 16 -11 9 2 -4 8 1 6 11 -5 10 -11 25 -19 34 -17 9 1 21 -4 28 -12 7 -8 18
-13 26 -10 7 3 16 1 20 -5 3 -6 15 -11 26 -11 11 0 18 -3 16 -7 -3 -5 9 -9 26
-10 17 -1 34 -8 39 -15 4 -7 8 -9 8 -4 0 5 7 3 15 -4 8 -6 19 -9 25 -5 5 3 10
2 10 -3 0 -5 7 -9 15 -10 8 -1 22 -3 30 -4 8 -1 15 -5 15 -10 0 -6 6 -8 13 -5
6 2 23 -5 36 -17 13 -11 21 -15 17 -8 -10 17 10 15 28 -4 12 -12 16 -12 16 -2
0 10 2 10 9 -1 5 -7 14 -10 20 -7 6 4 11 2 11 -4 0 -7 7 -10 15 -6 8 3 15 1
15 -4 0 -5 6 -7 14 -4 8 3 17 0 21 -5 3 -6 11 -9 16 -6 5 4 9 2 9 -2 0 -8 23
-13 68 -16 6 0 12 -5 12 -10 0 -6 3 -7 7 -4 3 4 17 0 29 -8 14 -9 25 -11 29
-5 4 6 12 4 22 -5 12 -12 18 -13 30 -4 11 10 14 10 11 -2 -2 -8 3 -13 11 -11
8 2 18 -3 22 -10 7 -11 9 -10 9 1 0 10 6 10 26 -4 15 -9 23 -12 19 -5 -4 7 4
5 17 -4 14 -9 27 -13 31 -10 3 3 23 0 44 -7 21 -7 49 -14 63 -16 56 -6 69 -10
82 -21 8 -7 19 -7 28 -2 9 5 17 5 20 0 3 -5 22 -10 43 -12 20 -1 37 -6 37 -11
0 -5 7 -7 15 -4 8 4 17 3 19 -2 3 -4 15 -7 28 -6 13 1 33 -2 46 -6 15 -6 22
-5 22 3 0 7 7 3 15 -8 9 -12 14 -14 15 -6 0 8 5 10 13 5 6 -4 21 -8 32 -8 11
0 26 -4 33 -8 6 -5 12 -6 12 -3 0 3 12 1 26 -4 18 -7 23 -7 18 1 -4 8 -1 8 12
1 11 -6 22 -10 27 -11 4 -1 8 -1 10 -2 1 0 29 -3 62 -5 33 -3 63 -11 67 -17 5
-8 8 -8 8 -1 0 6 7 11 15 11 8 0 15 -4 15 -8 0 -9 20 -6 39 5 10 7 12 6 6 -4
-6 -10 -4 -12 8 -7 10 4 17 1 17 -6 0 -8 4 -6 10 3 5 8 10 10 10 5 0 -6 23
-10 50 -10 28 0 50 -3 50 -7 0 -11 23 -5 32 7 5 6 8 6 8 -1 0 -7 16 -11 38
-11 20 0 47 -3 60 -7 13 -5 29 -3 36 3 10 8 17 7 26 -4 9 -11 17 -12 31 -4 10
5 19 6 19 1 0 -12 43 -9 52 3 5 7 8 7 8 0 0 -14 60 -15 60 -1 0 6 5 4 10 -4 5
-8 10 -11 10 -6 0 5 7 3 15 -4 11 -9 15 -9 15 -1 0 7 5 9 12 5 6 -4 33 -6 61
-5 28 1 56 -4 65 -11 11 -9 13 -9 9 -1 -4 6 -3 14 3 18 5 3 10 2 10 -2 0 -5
12 -8 28 -7 15 1 33 -5 40 -12 7 -8 10 -14 6 -14 -4 0 1 -10 12 -22 12 -13 13
-18 4 -13 -9 5 -8 0 4 -13 14 -17 16 -22 5 -22 -10 -1 -9 -5 5 -15 11 -8 16
-21 13 -30 -4 -8 -2 -15 3 -15 5 0 7 -6 4 -13 -2 -7 2 -26 10 -41 8 -16 13
-37 11 -47 -2 -11 1 -19 7 -19 6 0 8 -9 5 -20 -3 -11 -1 -23 5 -26 5 -3 8 -15
5 -25 -3 -11 0 -19 5 -19 7 0 6 -5 -1 -14 -8 -10 -8 -15 -1 -18 6 -2 12 -23
14 -48 2 -25 5 -45 6 -45 2 0 7 -33 13 -91 2 -22 7 -46 11 -52 4 -7 4 -16 1
-22 -3 -5 -1 -10 6 -10 8 0 8 -4 -1 -15 -10 -11 -10 -15 0 -15 6 0 10 -6 7
-12 -2 -7 0 -26 4 -42 6 -20 4 -35 -4 -45 -9 -12 -9 -13 1 -7 8 5 12 1 13 -11
1 -10 3 -36 4 -58 2 -22 4 -40 5 -40 3 0 12 -80 13 -132 1 -29 5 -53 8 -53 3
0 7 -26 8 -57 4 -88 5 -97 15 -112 7 -10 6 -12 -4 -6 -10 6 -11 4 -4 -6 5 -8
10 -39 11 -69 1 -30 2 -55 3 -55 2 0 5 -25 13 -122 1 -17 5 -35 9 -39 4 -3 3
-14 -2 -24 -5 -10 -7 -19 -5 -22 2 -2 6 -32 7 -66 1 -34 6 -62 11 -62 4 0 5
-6 1 -12 -10 -16 -13 -48 -4 -48 3 0 6 -9 7 -20 1 -11 -4 -20 -10 -20 -7 0 -6
-4 3 -10 8 -5 12 -12 8 -15 -3 -3 -2 -21 2 -40 5 -23 4 -36 -4 -39 -7 -3 -6
-5 3 -5 11 -1 11 -4 1 -16 -7 -9 -8 -15 -2 -15 5 0 8 -16 6 -36 -2 -19 1 -46
6 -59 5 -14 6 -27 0 -30 -5 -3 -5 -18 0 -35 5 -18 5 -32 -1 -36 -6 -4 -6 -10
0 -18 7 -9 7 -16 -2 -25 -9 -9 -9 -14 1 -20 8 -4 11 -19 8 -34 -2 -15 0 -30 6
-33 7 -4 6 -9 -3 -14 -10 -7 -10 -11 0 -24 11 -13 11 -16 0 -16 -11 0 -11 -2
1 -10 9 -6 11 -10 3 -10 -7 0 -10 -6 -8 -12 3 -7 6 -40 8 -73 2 -34 7 -67 12
-74 5 -9 4 -12 -3 -7 -14 8 -11 -56 3 -66 6 -5 5 -8 -3 -8 -10 0 -10 -5 -1
-21 8 -16 8 -20 -1 -14 -9 6 -9 3 -1 -12 7 -14 7 -23 -1 -31 -9 -9 -9 -12 1
-12 10 0 11 -3 2 -13 -6 -8 -8 -17 -4 -21 11 -11 12 -36 1 -36 -6 0 -5 -6 2
-15 9 -11 10 -18 1 -28 -6 -8 -8 -17 -4 -21 13 -13 13 -49 1 -64 -10 -12 -10
-14 -1 -9 9 6 12 -5 10 -43 -1 -27 2 -50 7 -50 6 0 5 -5 -1 -11 -8 -8 -8 -20
-3 -35 6 -16 6 -24 -1 -24 -6 0 -7 -5 -4 -11 8 -13 10 -467 2 -475 -3 -3 -1
-19 3 -35 5 -17 5 -29 0 -29 -6 0 -6 -10 0 -24 5 -13 6 -27 2 -31 -3 -3 -5
-22 -3 -41 1 -19 -3 -42 -11 -51 -8 -10 -8 -14 -1 -10 8 5 11 -4 10 -30 -1
-21 -6 -43 -9 -49 -4 -6 -4 -14 -1 -18 12 -12 12 -36 0 -36 -8 0 -7 -3 1 -9
15 -9 15 -17 2 -42 -5 -8 -5 -21 0 -29 5 -8 4 -22 -1 -32 -7 -13 -6 -18 3 -18
8 0 9 -3 3 -8 -5 -4 -10 -14 -10 -22 0 -8 5 -18 10 -22 7 -5 7 -11 0 -15 -10
-7 -14 -66 -19 -263 -1 -42 -5 -81 -10 -88 -4 -6 -3 -12 3 -12 7 0 7 -8 0 -27
-7 -19 -6 -28 2 -33 8 -5 8 -10 1 -14 -6 -4 -9 -13 -6 -20 3 -8 0 -17 -5 -21
-6 -3 -8 -11 -4 -18 10 -17 10 -57 0 -57 -5 0 -4 -7 3 -15 7 -9 8 -15 2 -15
-12 0 -11 -18 2 -39 7 -10 6 -12 -4 -6 -10 6 -11 2 -6 -19 4 -17 2 -26 -5 -26
-8 0 -9 -4 0 -13 6 -8 9 -16 6 -19 -11 -11 -12 -68 -1 -68 6 0 5 -4 -3 -9 -8
-5 -11 -16 -8 -25 4 -9 1 -16 -5 -16 -7 0 -7 -4 1 -14 9 -11 9 -15 -1 -19 -8
-4 -9 -6 -1 -6 6 -1 9 -10 6 -21 -3 -11 -10 -17 -15 -14 -6 4 -5 -3 1 -15 8
-14 9 -27 3 -38 -6 -9 -6 -29 -1 -45 4 -16 4 -26 -1 -23 -5 3 -8 -10 -6 -30 1
-20 -1 -38 -5 -41 -4 -2 -5 -14 -1 -26 4 -15 2 -19 -7 -13 -10 6 -11 3 -2 -12
7 -14 7 -23 -1 -31 -9 -9 -9 -12 1 -12 7 0 9 -5 5 -12 -4 -7 -9 -30 -11 -53
-2 -22 -6 -60 -8 -85 -3 -25 -6 -64 -8 -87 -1 -24 -4 -43 -7 -43 -3 0 -6 -9
-7 -20 -1 -11 2 -18 7 -15 6 3 7 -1 4 -9 -3 -9 -11 -13 -18 -9 -7 5 -7 2 1 -8
10 -12 9 -20 -2 -37 -9 -12 -11 -23 -5 -27 5 -3 6 -15 1 -28 -5 -12 -7 -30 -6
-39 2 -10 -1 -20 -6 -24 -5 -3 -5 -12 1 -23 5 -10 6 -21 3 -25 -7 -7 -11 -24
-15 -63 -1 -13 -7 -23 -13 -23 -5 0 -3 -5 5 -10 8 -5 11 -10 5 -10 -5 0 -11
-17 -13 -38 -4 -44 -9 -77 -12 -77 -2 0 -10 -72 -11 -99 0 -11 -4 -27 -10 -38
-7 -13 -6 -18 3 -18 10 0 10 -2 -1 -9 -7 -5 -15 -24 -17 -42 -3 -34 -11 -86
-16 -111 -2 -7 -7 -16 -13 -20 -6 -5 -5 -8 3 -8 10 0 10 -5 2 -20 -6 -10 -10
-23 -9 -27 1 -4 0 -10 -1 -13 -1 -3 -3 -12 -5 -20 -2 -8 -7 -24 -11 -34 -6
-15 -4 -17 7 -11 11 6 12 5 2 -6 -7 -7 -13 -23 -13 -35 0 -13 -4 -25 -9 -28
-4 -3 -7 -17 -6 -31 2 -14 0 -25 -5 -25 -4 0 -6 -9 -3 -20 3 -11 1 -20 -3 -20
-5 0 -10 -15 -11 -33 -5 -70 -6 -76 -12 -73 -4 3 -7 -10 -6 -27 0 -18 -4 -35
-9 -38 -4 -4 -10 -28 -12 -55 -2 -26 -8 -52 -13 -57 -6 -6 -7 -17 -1 -27 7
-13 5 -21 -5 -30 -7 -6 -11 -19 -8 -27 4 -10 2 -14 -4 -10 -6 4 -9 -3 -7 -18
1 -14 -2 -27 -7 -31 -5 -3 -6 -10 -3 -16 4 -6 0 -14 -7 -19 -12 -7 -12 -9 0
-9 9 0 10 -4 4 -13 -6 -6 -9 -22 -8 -35 1 -12 -3 -22 -8 -22 -5 0 -7 -7 -4
-15 4 -8 2 -17 -2 -20 -5 -3 -7 -14 -4 -25 3 -12 0 -20 -6 -20 -7 0 -9 -4 -6
-10 3 -5 1 -19 -6 -31 -9 -17 -8 -20 2 -14 8 6 10 4 3 -6 -4 -8 -9 -20 -11
-28 -6 -43 -15 -61 -25 -55 -7 5 -8 3 -2 -7 15 -24 13 -39 -4 -39 -10 0 -13
-3 -7 -8 10 -6 12 -23 5 -37 -1 -3 -4 -9 -5 -15 -1 -5 -4 -13 -5 -17 -1 -5 -2
-12 -1 -17 1 -5 -1 -16 -5 -25 -4 -9 -8 -25 -10 -36 -2 -11 -6 -29 -8 -40 -2
-11 -5 -28 -5 -38 -1 -10 -5 -16 -9 -13 -4 2 -8 -5 -9 -17 -2 -45 -8 -77 -14
-77 -3 0 -5 -13 -4 -30 1 -16 -2 -27 -6 -24 -4 2 -8 -4 -8 -13 0 -10 -3 -31
-6 -48 -4 -16 -7 -40 -8 -52 -1 -13 -6 -23 -11 -23 -4 0 -6 -7 -2 -15 3 -8 2
-15 -2 -15 -4 0 -9 -11 -10 -26 -1 -14 -7 -34 -12 -45 -8 -14 -7 -19 2 -19 9
0 9 -3 -2 -10 -8 -5 -11 -10 -6 -10 6 0 5 -5 -2 -12 -15 -15 -16 -32 -1 -22 6
3 3 -5 -6 -19 -9 -15 -14 -31 -10 -37 3 -5 2 -10 -3 -10 -5 0 -8 -10 -7 -23 1
-12 -5 -28 -14 -35 -9 -8 -10 -11 -3 -7 14 7 17 -11 2 -20 -5 -3 -7 -12 -4
-19 3 -8 1 -17 -5 -20 -6 -4 -8 -13 -4 -21 3 -8 1 -15 -5 -15 -5 0 -8 -14 -6
-31 2 -16 0 -28 -4 -25 -4 2 -8 -7 -9 -21 0 -14 -7 -29 -15 -34 -10 -7 -10 -9
0 -9 7 0 10 -4 7 -10 -7 -12 -12 -32 -30 -125 -2 -11 -4 -20 -5 -20 -3 0 -12
-39 -13 -57 -1 -10 -4 -18 -7 -18 -3 0 -6 -8 -6 -17 -1 -19 -4 -30 -30 -136
-7 -31 -13 -57 -20 -97 -4 -19 -12 -41 -18 -49 -9 -12 -8 -13 4 -6 13 8 13 7
1 -8 -7 -9 -10 -17 -6 -17 4 0 3 -6 -2 -12 -6 -7 -9 -21 -8 -30 2 -9 -3 -22
-11 -29 -49 -40 -154 -39 3375 -39 1851 0 3361 4 3355 8 -6 4 -10 18 -9 32 1
14 -2 31 -8 38 -6 8 -6 12 2 12 8 0 9 6 3 18 -5 9 -7 23 -5 30 3 6 -1 12 -7
12 -10 0 -10 4 0 15 7 8 8 15 3 15 -5 0 -10 12 -10 28 -3 55 -7 77 -18 84 -6
5 -5 8 3 8 10 0 10 5 2 20 -8 15 -8 20 2 20 8 0 9 3 3 8 -6 4 -12 21 -14 37
-4 42 -8 70 -11 70 -2 0 -10 85 -10 113 0 12 -4 22 -8 22 -4 0 -7 18 -6 40 1
22 -3 43 -7 46 -5 3 -6 10 -3 16 4 6 0 14 -7 19 -12 7 -12 9 0 9 11 0 11 3 1
15 -10 12 -10 15 0 15 10 0 10 3 0 15 -6 8 -9 18 -6 24 3 5 0 12 -6 14 -10 4
-9 6 1 6 11 1 11 4 1 16 -7 9 -10 18 -7 21 3 3 2 16 -3 29 -6 15 -4 27 3 35 8
8 8 11 1 7 -13 -7 -29 97 -18 115 4 6 2 8 -3 5 -6 -4 -11 3 -12 16 -1 12 -3
37 -4 55 -1 17 -5 32 -8 32 -3 0 -5 16 -4 35 1 20 -2 38 -6 41 -4 2 -6 11 -3
18 3 8 0 17 -6 21 -8 5 -8 11 1 21 6 8 7 14 2 14 -5 0 -10 7 -10 15 0 8 5 15
11 15 6 0 5 4 -3 9 -7 5 -15 28 -17 52 -1 24 -6 62 -9 84 -8 47 -8 57 -5 70 5
19 0 36 -9 31 -5 -4 -6 9 -1 28 4 19 4 38 -1 43 -5 5 -10 37 -12 71 -1 34 -5
62 -9 62 -8 0 -5 21 5 38 5 7 4 12 -2 12 -6 0 -9 10 -7 23 2 12 -1 28 -6 35
-7 8 -7 12 1 12 7 0 10 4 6 10 -3 5 -6 25 -7 44 -1 21 -5 33 -11 29 -6 -4 -7
-1 -1 8 13 21 14 39 1 39 -7 0 -5 5 3 10 12 8 12 10 1 10 -10 0 -11 3 -2 14 9
10 9 16 1 21 -8 5 -8 10 0 20 8 10 8 15 0 20 -7 4 -10 18 -7 31 2 13 -1 25 -7
28 -6 3 -5 5 3 5 10 1 11 4 2 15 -8 10 -9 16 -1 21 6 3 7 14 2 23 -4 9 -7 28
-7 42 0 14 -4 28 -10 32 -6 5 -5 8 3 8 6 0 12 5 12 11 0 5 -5 7 -11 3 -8 -5
-8 -1 0 14 6 11 7 22 2 24 -5 2 2 12 17 22 14 11 22 14 18 8 -7 -11 13 -8 39
7 6 3 15 6 20 8 47 10 57 13 67 19 6 4 23 8 37 10 14 1 27 3 29 4 2 3 2 3 52
14 19 5 40 11 45 15 6 4 24 8 40 10 17 2 32 6 35 10 3 3 16 7 30 9 14 1 32 5
40 9 24 10 43 14 70 16 14 1 31 6 38 10 6 5 17 5 22 2 6 -3 10 -2 10 4 0 5 9
8 20 6 11 -2 20 -1 20 4 0 4 10 7 23 8 12 0 54 8 92 17 79 19 100 23 133 25
13 0 21 5 18 9 -3 5 8 10 24 11 71 5 80 6 80 15 0 5 3 6 7 3 3 -4 12 -2 20 4
7 6 13 9 13 6 0 -3 20 1 44 8 24 8 47 11 50 8 3 -4 6 -1 6 5 0 6 9 9 20 7 11
-2 20 1 20 7 0 6 9 8 20 5 11 -3 18 -1 14 4 -3 5 3 9 13 9 11 0 25 6 32 13 11
9 12 9 7 0 -5 -9 -2 -11 8 -7 9 3 16 10 16 16 0 5 5 6 10 3 6 -4 17 -1 25 5 8
7 15 9 15 5 0 -4 7 -2 15 5 8 7 15 9 15 5 0 -4 6 -2 13 4 8 6 17 8 20 4 4 -3
7 -1 7 5 0 7 3 11 8 11 16 -3 72 14 72 22 0 5 4 9 9 9 5 0 22 5 38 12 15 6 30
12 33 13 33 8 80 28 80 34 0 4 7 8 15 9 8 1 22 3 30 4 8 1 15 5 15 8 0 9 56
33 76 33 7 0 11 3 9 7 -2 3 26 21 63 40 37 18 71 40 75 47 5 7 12 11 17 8 5
-3 15 4 23 15 7 11 16 17 20 14 3 -3 11 4 17 16 8 14 17 19 28 15 9 -3 13 -3
10 1 -8 8 16 34 32 34 6 0 9 4 5 9 -3 5 4 13 16 16 11 4 18 9 16 12 -3 3 9 19
26 37 18 17 33 38 35 46 2 8 9 18 15 22 7 4 8 8 3 8 -5 0 -3 7 4 15 7 8 9 15
4 15 -5 0 -3 4 5 9 21 14 23 161 3 214 -9 23 -19 44 -23 47 -3 3 -5 13 -3 23
1 9 -1 15 -5 13 -4 -3 -13 10 -21 27 -7 18 -22 39 -32 48 -10 9 -15 19 -11 23
3 3 0 6 -7 6 -7 0 -11 3 -7 6 3 3 -10 21 -29 40 -19 19 -34 39 -34 44 0 6 -6
10 -14 10 -8 0 -18 9 -21 20 -3 11 -12 20 -18 20 -7 0 -21 11 -31 25 -10 14
-23 25 -28 25 -5 0 -25 17 -46 37 -20 21 -38 36 -39 35 -9 -7 -23 0 -18 8 3 5
0 10 -7 10 -11 0 -30 13 -85 60 -7 6 -13 8 -13 4 0 -4 -8 3 -19 14 -10 12 -22
22 -27 22 -8 0 -28 15 -81 60 -7 6 -15 9 -17 8 -3 -2 -14 4 -24 13 -10 8 -26
18 -35 22 -9 3 -17 11 -17 17 0 6 -4 8 -10 5 -5 -3 -10 -1 -10 5 0 6 -4 9 -9
6 -5 -3 -20 5 -34 18 -14 13 -29 21 -32 17 -4 -3 -12 1 -18 9 -7 8 -33 26 -59
39 -26 14 -44 29 -41 34 3 6 1 7 -4 4 -6 -4 -22 2 -34 14 -18 15 -19 19 -6 15
9 -3 17 -1 17 5 0 6 5 7 10 4 6 -3 10 -1 10 5 0 6 4 9 9 6 5 -3 25 1 44 9 19
8 38 11 42 7 5 -4 5 -1 1 6 -4 7 -1 12 9 12 20 0 122 48 130 61 4 5 15 9 26 9
10 0 19 5 19 10 0 6 7 10 15 10 8 0 15 5 15 10 0 6 7 10 16 10 9 0 12 5 8 12
-5 8 -2 9 9 5 11 -4 17 -1 17 8 0 8 4 15 8 15 14 0 52 36 52 49 0 6 3 10 8 8
4 -1 8 3 10 8 2 6 13 15 25 22 12 7 18 13 12 13 -5 0 -4 4 3 9 7 4 14 17 15
29 0 11 4 19 8 16 9 -5 25 18 24 36 0 8 4 18 9 22 6 4 12 19 13 35 2 15 4 34
5 41 1 6 6 12 12 12 7 0 7 3 1 8 -5 4 -11 27 -12 52 -2 70 -38 190 -56 190 -4
0 -6 4 -2 9 3 5 -2 16 -10 24 -8 9 -15 23 -15 32 0 9 -5 13 -10 10 -6 -3 -10
-1 -10 5 0 6 -7 18 -15 27 -8 8 -12 19 -9 25 4 7 2 8 -4 4 -7 -4 -17 3 -23 18
-7 14 -16 23 -20 20 -5 -3 -9 0 -9 6 0 14 -150 160 -164 160 -3 0 -16 10 -29
23 -40 37 -89 77 -96 77 -3 0 -20 14 -38 30 -18 17 -35 30 -38 30 -8 0 -69 44
-73 53 -2 4 -9 7 -16 7 -7 0 -21 8 -32 18 -11 9 -36 26 -57 36 -20 11 -37 23
-37 28 0 4 -3 7 -7 6 -11 -2 -45 13 -60 26 -34 30 -41 34 -47 29 -3 -4 -13 2
-21 13 -8 10 -15 16 -15 12 0 -3 -26 9 -57 28 -32 19 -75 42 -95 51 -21 9 -38
20 -38 25 0 4 -9 8 -20 8 -11 0 -20 5 -20 10 0 6 -3 9 -8 8 -12 -3 -102 44
-102 54 0 5 -4 7 -10 3 -5 -3 -41 10 -80 30 -38 19 -70 32 -70 28 0 -5 -6 -1
-13 7 -7 8 -23 17 -37 19 -14 1 -28 8 -31 13 -4 6 -11 8 -17 4 -6 -3 -12 -1
-14 4 -2 6 -10 12 -18 14 -25 4 -110 44 -123 58 -14 15 -15 27 -4 45 4 6 3 15
-3 18 -7 4 -7 11 -2 18 5 7 10 19 10 27 3 52 11 117 16 131 4 8 8 38 9 67 1
29 5 52 8 52 4 0 6 15 5 34 -1 19 2 32 6 30 5 -3 8 2 8 11 0 10 -5 13 -12 9
-8 -4 -7 1 2 12 9 10 15 31 14 47 0 15 2 27 6 27 4 0 6 11 5 25 -2 14 1 25 6
25 6 0 5 8 -1 19 -7 15 -7 22 2 28 7 4 14 19 15 33 2 37 13 102 19 122 3 10 8
30 10 45 3 15 8 32 12 38 4 5 7 22 6 38 0 15 2 27 6 27 4 0 6 12 4 27 -1 15 1
32 6 38 5 6 10 23 12 37 2 15 7 30 11 34 12 12 8 26 -5 18 -10 -6 -10 -4 0 7
6 7 12 26 12 41 0 15 4 28 9 28 6 0 8 9 6 20 -2 11 1 20 7 20 7 0 6 6 -2 15
-7 9 -8 15 -2 15 5 0 13 7 16 16 4 10 2 13 -7 8 -8 -6 -8 -3 1 9 8 9 11 21 7
27 -3 5 -2 10 4 10 6 0 8 7 5 15 -4 8 -1 15 6 15 6 0 9 4 6 8 -3 5 2 33 10 63
9 30 16 63 15 73 0 11 5 28 10 39 9 15 8 18 -3 11 -10 -6 -11 -5 -1 8 7 8 10
18 6 21 -3 4 -1 7 4 7 6 0 10 8 9 18 -2 9 3 37 11 62 15 47 23 97 25 142 0 15
3 26 7 24 3 -2 7 12 8 31 1 19 8 42 15 51 7 9 8 13 2 9 -8 -4 -11 2 -10 17 0
13 5 22 10 18 5 -3 7 2 3 11 -4 10 -1 17 6 17 8 0 6 4 -3 10 -12 8 -12 10 -1
10 8 0 11 3 8 7 -4 3 -1 13 6 21 9 13 9 14 0 8 -7 -4 -13 -3 -13 3 0 5 4 12
10 16 5 3 7 12 3 20 -3 9 1 15 8 15 11 0 11 3 -1 10 -9 6 -10 10 -3 10 6 0 11
8 11 18 -1 27 6 46 22 59 8 7 11 13 5 13 -7 0 -7 3 0 8 18 13 51 56 36 47 -10
-6 -10 -2 2 16 8 13 14 34 13 46 -2 13 2 19 7 16 6 -4 8 0 4 10 -3 10 -3 17 1
17 4 0 9 12 10 27 1 15 6 29 11 32 4 3 7 16 6 29 -1 12 2 22 7 22 5 0 6 5 2
11 -3 6 0 15 7 20 12 7 11 9 -1 9 -11 1 -10 4 5 16 17 13 18 16 5 24 -11 7
-11 10 -2 10 7 0 11 4 8 8 -3 5 1 21 9 36 10 18 10 24 2 19 -9 -5 -9 -3 0 8 7
9 14 33 15 55 2 21 6 42 11 45 4 3 8 22 9 43 1 20 5 39 10 42 4 3 6 10 3 15
-4 5 0 9 7 9 9 0 9 3 -2 10 -12 7 -12 10 -1 10 7 0 11 6 8 15 -4 8 -1 17 5 21
7 4 6 9 -3 15 -12 7 -12 9 0 9 8 0 11 7 8 20 -3 12 1 24 11 30 10 5 12 10 5
10 -9 0 -10 7 -3 26 6 14 10 39 10 55 0 21 4 28 13 23 9 -5 9 -4 0 6 -7 8 -9
19 -4 29 5 9 7 26 6 39 -1 12 2 22 6 22 4 0 6 8 4 18 -1 9 3 23 9 31 9 12 8
13 -4 6 -12 -7 -13 -6 -4 6 6 8 10 22 9 32 -2 9 1 17 7 17 6 0 5 6 -2 15 -7 8
-8 15 -3 15 5 0 9 8 10 18 5 72 17 149 25 159 6 7 5 14 -2 18 -8 5 -8 11 1 21
9 11 8 14 -2 14 -9 0 -10 3 -4 8 6 4 12 27 14 52 2 25 8 51 14 59 9 12 9 13
-1 7 -9 -6 -11 0 -7 25 3 18 8 36 11 41 3 4 0 8 -7 8 -7 0 -8 5 -3 13 11 15
11 38 0 56 -6 9 -5 12 1 8 6 -4 13 0 16 7 3 8 1 17 -6 20 -7 2 -7 5 -2 5 6 1
9 18 7 42 -4 33 -2 40 9 34 11 -6 12 -5 2 6 -7 7 -13 17 -13 22 0 4 6 5 13 1
9 -6 9 -5 0 7 -9 11 -9 19 -2 26 8 8 8 13 0 17 -8 5 -8 13 -1 27 7 11 7 19 1
19 -10 0 -9 19 2 38 5 7 4 12 -2 12 -6 0 -11 5 -11 11 0 5 4 8 8 5 5 -3 9 1 9
9 0 8 -5 15 -10 15 -6 0 -6 5 0 13 11 15 11 47 -1 66 -6 10 -5 12 2 7 7 -4 12
-2 12 3 0 6 -6 11 -12 11 -9 0 -9 3 -3 8 14 9 15 93 2 85 -6 -4 -7 -1 -2 7 14
22 15 81 2 73 -8 -4 -7 -1 1 9 9 12 10 18 2 23 -8 5 -8 11 1 21 8 10 8 14 0
14 -7 0 -8 8 -1 25 7 17 6 25 -1 25 -8 0 -7 5 1 15 7 8 8 15 3 15 -13 0 -11
83 2 92 6 5 5 8 -3 8 -9 0 -13 16 -13 53 1 83 -3 121 -14 129 -6 5 -5 8 3 8 8
0 10 5 6 12 -7 11 -14 69 -17 146 -1 17 -4 32 -7 32 -3 0 -5 12 -6 28 -1 65
-18 174 -30 194 -4 7 -3 8 4 4 7 -4 12 -3 12 3 0 5 -5 13 -11 17 -6 3 -9 15
-6 25 3 11 0 19 -5 19 -7 0 -6 5 1 14 8 10 9 15 1 18 -6 2 -12 25 -13 51 -1
26 -5 47 -9 47 -4 0 -8 10 -8 23 0 46 -4 77 -10 77 -5 0 -10 22 -13 63 -1 9
-5 17 -10 17 -4 0 -5 5 -2 10 4 6 1 18 -7 27 -9 12 -9 15 0 9 6 -4 12 -3 12 3
0 5 -5 11 -12 13 -7 3 -13 23 -14 45 -1 22 -5 47 -10 54 -4 8 -9 20 -10 29 -4
27 -13 60 -19 70 -3 6 0 10 7 10 9 0 9 3 2 8 -15 10 -39 57 -25 48 7 -5 9 -1
5 8 -3 9 -11 16 -18 16 -7 0 -6 4 3 9 9 6 10 11 2 15 -6 4 -9 12 -6 17 4 5 1
9 -6 9 -6 0 -9 8 -6 20 3 11 1 23 -5 26 -5 3 -8 15 -5 25 3 11 2 17 -2 15 -3
-2 -11 7 -18 20 -6 13 -7 22 -3 19 5 -3 2 7 -5 22 -8 16 -16 41 -19 57 -3 16
-9 32 -13 35 -5 3 -8 13 -8 21 0 8 -5 26 -12 39 -6 14 -10 28 -7 33 3 4 0 8
-6 8 -6 0 -8 5 -5 10 3 6 2 10 -2 10 -5 0 -10 10 -10 22 -1 13 -7 24 -13 26
-5 2 -7 8 -4 13 3 6 -2 20 -13 31 -12 15 -13 19 -3 14 9 -5 8 -2 -2 7 -10 8
-15 17 -12 20 4 4 0 21 -9 39 -29 61 -43 99 -46 119 0 5 -7 7 -13 3 -7 -4 -10
-4 -6 1 4 4 2 15 -5 23 -10 13 -9 14 3 7 12 -7 13 -6 3 7 -7 8 -10 18 -6 21 3
4 1 7 -5 7 -7 0 -12 7 -12 16 0 8 -4 13 -8 10 -4 -2 -9 7 -10 22 -1 14 -7 29
-13 32 -6 4 -12 13 -13 21 -5 27 -25 67 -36 74 -5 3 -8 10 -5 15 3 5 1 11 -5
15 -5 3 -10 15 -10 26 0 11 -4 17 -10 14 -5 -3 -10 1 -10 10 0 9 -7 27 -16 40
-9 14 -12 25 -8 25 5 0 4 4 -1 8 -21 14 -46 63 -39 75 4 7 4 9 -1 5 -4 -4 -19
13 -31 39 -13 26 -32 55 -41 65 -9 10 -14 21 -10 24 3 3 -3 15 -13 27 -11 11
-17 24 -14 29 3 4 -2 8 -11 8 -9 0 -13 5 -10 10 3 6 1 10 -5 10 -6 0 -8 5 -5
10 3 6 1 10 -5 10 -6 0 -8 5 -5 10 3 6 1 10 -5 10 -6 0 -9 4 -6 8 3 5 -4 14
-14 22 -10 8 -17 17 -15 21 3 4 -2 12 -10 19 -8 7 -15 19 -15 26 0 8 -4 14
-10 14 -5 0 -10 5 -10 10 0 6 -9 20 -20 32 -11 12 -20 28 -20 35 0 7 -5 13
-11 13 -5 0 -8 4 -5 9 3 5 -1 11 -9 15 -8 3 -15 10 -15 16 0 6 -9 20 -20 32
-11 12 -20 28 -20 35 0 8 -4 11 -10 8 -5 -3 -10 3 -10 15 0 12 -4 19 -9 16 -4
-3 -13 6 -19 19 -7 14 -17 25 -24 25 -10 0 -9 3 1 9 11 7 9 10 -8 16 -12 3
-19 11 -16 16 4 5 2 9 -2 9 -5 0 -17 14 -27 30 -9 17 -21 28 -27 25 -5 -3 -6
0 -3 8 3 9 -4 21 -15 29 -12 8 -18 18 -14 21 3 4 -1 7 -11 7 -9 0 -14 4 -11
10 3 5 -3 15 -15 22 -11 7 -20 21 -20 30 0 10 -3 17 -8 15 -7 -2 -52 39 -52
48 1 12 -28 34 -35 27 -5 -4 -5 -2 -1 5 7 13 -28 55 -38 45 -3 -3 -6 4 -6 16
0 14 -6 22 -17 22 -9 0 -14 3 -10 6 8 8 -16 33 -25 27 -5 -2 -8 1 -8 7 0 15
-47 60 -54 52 -4 -3 -4 1 0 11 4 12 1 17 -10 17 -14 0 -20 11 -17 32 0 4 -5 5
-13 2 -9 -3 -21 7 -32 25 -10 17 -27 34 -37 37 -16 5 -17 8 -6 15 10 6 8 9 -8
9 -13 0 -23 5 -23 10 0 13 -37 50 -50 50 -5 0 -10 6 -10 14 0 8 -9 18 -20 21
-11 4 -18 11 -15 16 4 5 2 9 -4 9 -5 0 -35 25 -66 55 -32 30 -62 55 -67 55 -6
0 -8 7 -4 15 3 8 2 14 -2 14 -17 -3 -29 3 -57 27 -16 14 -29 30 -28 35 2 5 0
8 -5 8 -20 -3 -32 2 -32 16 0 8 -6 15 -14 15 -8 0 -17 7 -20 16 -4 9 -9 14
-12 11 -5 -5 -32 16 -89 70 -12 12 -26 19 -29 16 -3 -3 -8 2 -12 11 -3 9 -10
13 -15 10 -5 -3 -9 2 -9 11 0 9 -4 13 -10 10 -5 -3 -10 -1 -10 5 0 6 -4 8 -10
5 -5 -3 -10 1 -10 10 0 9 -4 13 -10 10 -5 -3 -10 -2 -10 3 0 5 -11 15 -25 22
-13 7 -22 18 -18 23 3 6 1 7 -4 4 -6 -4 -23 5 -39 18 -16 14 -35 23 -41 20 -7
-2 -12 1 -10 7 2 10 -43 43 -75 54 -10 4 -15 10 -12 15 3 5 -2 9 -10 9 -8 0
-20 8 -25 18 -6 9 -11 13 -11 8 0 -5 -7 -3 -15 4 -8 6 -19 9 -24 5 -7 -3 -8 0
-5 9 3 9 1 16 -4 16 -6 0 -28 11 -48 25 -20 14 -41 22 -47 18 -6 -3 -7 -1 -3
5 4 7 1 12 -7 12 -8 0 -22 9 -32 20 -10 11 -26 20 -36 20 -10 0 -23 9 -29 20
-6 10 -16 17 -24 14 -7 -3 -16 2 -19 10 -4 9 -13 16 -22 16 -8 0 -15 5 -15 12
0 6 -3 8 -6 5 -4 -3 -18 2 -32 13 -13 11 -28 17 -33 14 -5 -3 -9 0 -9 5 0 6
-7 11 -16 11 -9 0 -12 5 -8 12 4 6 3 8 -3 5 -6 -4 -19 0 -29 8 -10 8 -27 15
-37 15 -10 0 -15 5 -12 10 3 6 -3 10 -14 10 -12 0 -21 5 -21 11 0 5 -4 7 -10
4 -5 -3 -10 -1 -10 5 0 7 -6 10 -12 8 -7 -3 -21 4 -32 14 -11 10 -26 18 -34
18 -7 0 -20 7 -29 16 -9 8 -22 13 -29 10 -8 -3 -19 4 -25 16 -9 17 -13 18 -20
7 -6 -10 -9 -11 -9 -1 0 6 -5 12 -11 12 -6 0 -17 6 -25 14 -8 8 -23 13 -34 11
-11 -2 -19 -1 -16 3 2 4 -9 15 -25 25 -18 10 -27 12 -23 4 4 -6 -4 -2 -18 11
-13 12 -27 19 -31 16 -4 -4 -13 -2 -20 4 -8 7 -18 8 -22 4 -5 -4 -5 2 -1 13 6
16 5 17 -5 8 -9 -9 -19 -8 -43 4 -17 10 -37 18 -45 19 -8 2 -17 8 -21 15 -4 6
-13 8 -19 5 -6 -4 -11 -2 -11 4 0 6 -4 8 -10 5 -5 -3 -10 -2 -10 2 0 5 -10 10
-22 10 -13 1 -24 7 -26 13 -2 5 -8 8 -13 4 -5 -3 -9 -1 -9 5 0 6 -7 8 -15 5
-8 -4 -15 -2 -15 3 0 5 -7 10 -15 11 -8 1 -22 3 -30 4 -8 1 -15 5 -15 10 0 4
-12 8 -26 8 -14 0 -23 4 -19 10 4 6 -7 10 -24 10 -17 0 -31 5 -31 10 0 6 -13
10 -30 10 -16 0 -30 5 -30 10 0 6 -11 10 -25 10 -14 0 -25 5 -25 12 0 6 -3 9
-6 5 -4 -3 -23 1 -43 9 -20 8 -37 15 -38 15 -9 -2 -60 16 -87 30 -13 8 -16 7
-11 -1 5 -8 0 -8 -16 1 -13 7 -29 12 -35 11 -7 -1 -14 4 -17 13 -4 8 -13 12
-22 9 -8 -3 -23 -3 -32 2 -10 4 -25 9 -33 10 -32 6 -45 10 -55 15 -10 6 -52
18 -95 26 -13 2 -31 10 -39 16 -12 10 -13 9 -6 -3 7 -12 6 -13 -6 -3 -9 7 -29
15 -45 17 -16 2 -37 7 -46 11 -9 4 -22 4 -28 0 -5 -3 -10 -1 -10 4 0 6 -3 10
-7 9 -5 -1 -25 2 -45 6 -24 5 -35 12 -31 20 4 7 1 7 -8 -1 -13 -10 -19 -10
-35 1 -12 9 -24 11 -35 5 -12 -6 -19 -4 -24 8 -5 15 -7 15 -15 3 -7 -11 -10
-12 -10 -2 0 7 -4 11 -9 8 -5 -4 -12 0 -14 6 -4 10 -6 10 -6 1 -1 -9 -8 -10
-25 -3 -13 5 -27 6 -30 3 -3 -4 -6 -2 -6 3 0 9 -14 12 -72 14 -16 1 -28 4 -28
8 0 4 -21 8 -48 10 -26 1 -48 6 -50 11 -1 5 -16 7 -32 5 -19 -2 -30 1 -30 9 0
8 -4 7 -10 -3 -5 -8 -10 -10 -10 -4 0 5 -13 9 -30 8 -17 -1 -30 3 -30 9 0 7
-5 5 -10 -3 -5 -8 -10 -10 -10 -4 0 6 -15 12 -32 13 -18 2 -41 3 -50 4 -10 1
-18 5 -18 10 0 5 -6 4 -14 -2 -10 -8 -16 -9 -21 -1 -3 5 -26 10 -50 10 -24 0
-47 5 -50 10 -5 8 -11 7 -21 -1 -11 -9 -14 -9 -14 1 0 10 -3 10 -15 0 -8 -7
-15 -8 -15 -3 0 5 -17 10 -39 11 -21 2 -49 5 -62 8 -13 3 -52 7 -87 8 -34 2
-65 6 -68 9 -3 3 -17 2 -31 -4 -17 -6 -22 -6 -18 2 5 7 -3 9 -24 6 -17 -3 -31
-1 -31 4 0 6 -6 7 -17 1 -11 -7 -25 -6 -41 1 -18 9 -25 8 -33 -4 -5 -8 -9 -9
-9 -3 0 11 -44 16 -175 18 -45 1 -86 5 -92 9 -6 4 -14 3 -17 -2 -3 -5 -21 -6
-40 -1 -22 5 -38 4 -45 -3 -6 -6 -11 -7 -11 -1 0 5 -47 9 -110 9 -61 0 -110
-4 -110 -8 0 -5 -5 -5 -11 -2 -15 10 -69 13 -74 5 -2 -4 -25 -4 -50 0 -25 4
-45 4 -45 0 0 -8 -82 -6 -97 3 -6 4 -14 3 -18 -2z"/>
</g>
</svg>
